#File written by RizomUV 2020.1.111.g89b05bd. Compilation :Jan  6 2021,08:31:11
mtllib PlaneteSimple:mtl
#begin vertices
v 1269.079 14.1754 1254.143
v 1269.079 13.4786 1251.09
v 1267.754 13.4786 1251.392
v 1266.692 13.4786 1252.239
v 1266.102 13.4786 1253.464
v 1266.102 13.4786 1254.822
v 1266.692 13.4786 1256.046
v 1267.754 13.4786 1256.893
v 1269.079 13.4786 1257.196
v 1270.403 13.4786 1256.893
v 1271.466 13.4786 1256.046
v 1272.055 13.4786 1254.822
v 1272.055 13.4786 1253.464
v 1271.466 13.4786 1252.239
v 1270.403 13.4786 1251.392
v 1269.079 11.5263 1248.642
v 1266.692 11.5263 1249.187
v 1264.778 11.5263 1250.713
v 1263.716 11.5263 1252.919
v 1263.716 11.5263 1255.367
v 1264.778 11.5263 1257.573
v 1266.692 11.5263 1259.099
v 1269.079 11.5263 1259.644
v 1271.466 11.5263 1259.099
v 1273.38 11.5263 1257.573
v 1274.442 11.5263 1255.367
v 1274.442 11.5263 1252.919
v 1273.38 11.5263 1250.713
v 1271.466 11.5263 1249.187
v 1269.079 8.7051 1247.283
v 1266.102 8.7051 1247.963
v 1263.716 8.7051 1249.866
v 1262.391 8.7051 1252.617
v 1262.391 8.7051 1255.669
v 1263.716 8.7051 1258.42
v 1266.102 8.7051 1260.323
v 1269.079 8.7051 1261.002
v 1272.055 8.7051 1260.323
v 1274.442 8.7051 1258.42
v 1275.766 8.7051 1255.669
v 1275.766 8.7051 1252.617
v 1274.442 8.7051 1249.866
v 1272.055 8.7051 1247.963
v 1269.079 5.5737 1247.283
v 1266.102 5.5737 1247.963
v 1263.716 5.5737 1249.866
v 1262.391 5.5737 1252.617
v 1262.391 5.5737 1255.669
v 1263.716 5.5737 1258.42
v 1266.102 5.5737 1260.323
v 1269.079 5.5737 1261.002
v 1272.055 5.5737 1260.323
v 1274.442 5.5737 1258.42
v 1275.766 5.5737 1255.669
v 1275.766 5.5737 1252.617
v 1274.442 5.5737 1249.866
v 1272.055 5.5737 1247.963
v 1269.079 2.7525 1248.642
v 1266.692 2.7525 1249.187
v 1264.778 2.7525 1250.713
v 1263.716 2.7525 1252.919
v 1263.716 2.7525 1255.367
v 1264.778 2.7525 1257.573
v 1266.692 2.7525 1259.099
v 1269.079 2.7525 1259.644
v 1271.466 2.7525 1259.099
v 1273.38 2.7525 1257.573
v 1274.442 2.7525 1255.367
v 1274.442 2.7525 1252.919
v 1273.38 2.7525 1250.713
v 1271.466 2.7525 1249.187
v 1269.079 0.8002 1251.09
v 1267.754 0.8002 1251.392
v 1266.692 0.8002 1252.239
v 1266.102 0.8002 1253.464
v 1266.102 0.8002 1254.822
v 1266.692 0.8002 1256.046
v 1267.754 0.8002 1256.893
v 1269.079 0.8002 1257.196
v 1270.403 0.8002 1256.893
v 1271.466 0.8002 1256.046
v 1272.055 0.8002 1254.822
v 1272.055 0.8002 1253.464
v 1271.466 0.8002 1252.239
v 1270.403 0.8002 1251.392
v 1269.079 0.1034 1254.143
#end vertices

#begin 132 textures vertices 
vt 0.09551962 0.8713536 0
vt 0.09917379 0.7466173 0
vt 0.1374682 0.7604737 0
vt 0.1678694 0.795205 0
vt 0.1846486 0.8442719 0
vt 0.1846486 0.8984353 0
vt 0.1678694 0.9475062 0
vt 0.1374681 0.9822336 0
vt 0.09917383 0.9960938 0
vt 0.04585755 0.6895721 0
vt 0.07625885 0.7242995 0
vt 0.09303804 0.7733703 0
vt 0.09303804 0.8275337 0
vt 0.076256 0.8766007 0
vt 0.04585763 0.9113319 0
vt 0.5782584 0.08081271 0
vt 0.6054747 0.1670057 0
vt 0.617932 0.2594092 0
vt 0.622584 0.3539069 0
vt 0.622834 0.4492976 0
vt 0.6194124 0.5452978 0
vt 0.6101438 0.6414911 0
vt 0.5881476 0.735888 0
vt 0.1075759 0.1670087 0
vt 0.1200326 0.2594122 0
vt 0.1246847 0.3539102 0
vt 0.1249349 0.4493006 0
vt 0.1215134 0.5453005 0
vt 0.1122433 0.6414961 0
vt 0.6807829 0.01374287 0
vt 0.6970879 0.1273165 0
vt 0.7042105 0.2371995 0
vt 0.706842 0.3448537 0
vt 0.7073399 0.4519136 0
vt 0.7067481 0.5602251 0
vt 0.7049597 0.6718495 0
vt 0.7002311 0.7896735 0
vt 0.1991889 0.1273198 0
vt 0.2063115 0.2372001 0
vt 0.2089429 0.3448539 0
vt 0.2094406 0.4519136 0
vt 0.2088484 0.5602251 0
vt 0.20706 0.6718515 0
vt 0.7976704 0.00390625 0
vt 0.7929409 0.1217301 0
vt 0.7911522 0.2333569 0
vt 0.7905598 0.3416684 0
vt 0.7910576 0.4487282 0
vt 0.7936894 0.5563822 0
vt 0.8008127 0.6662626 0
vt 0.8171185 0.779836 0
vt 0.2950418 0.1217337 0
vt 0.2932528 0.2333577 0
vt 0.2926606 0.3416689 0
vt 0.2931583 0.4487285 0
vt 0.2957898 0.5563824 0
vt 0.3029127 0.6662652 0
vt 0.9097536 0.05769268 0
vt 0.8877566 0.1520891 0
vt 0.8784875 0.2482818 0
vt 0.8750656 0.3442814 0
vt 0.8753158 0.4396718 0
vt 0.8799682 0.5341696 0
vt 0.8924256 0.6265729 0
vt 0.9196425 0.7127656 0
vt 0.3898574 0.1520925 0
vt 0.3805885 0.2482854 0
vt 0.3771665 0.3442853 0
vt 0.3774163 0.4396757 0
vt 0.3820681 0.5341731 0
vt 0.3945267 0.6265791 0
vt 0.9960938 0.1590097 0
vt 0.9774466 0.213614 0
vt 0.9677808 0.2804627 0
vt 0.9634374 0.3529808 0
vt 0.9629124 0.4266679 0
vt 0.9665536 0.4977154 0
vt 0.9764257 0.5617496 0
vt 0.9960938 0.612166 0
vt 0.4795474 0.2136164 0
vt 0.4698807 0.2804616 0
vt 0.4655381 0.3529852 0
vt 0.4650129 0.4266728 0
vt 0.4686565 0.4977177 0
vt 0.4785252 0.561753 0
vt 0.4714383 0.8194419 0
vt 0.4118549 0.05769223 0
vt 0.00390625 0.800452 0
vt 0.007560328 0.9251883 0
vt 0.501805 0.1814151 0
vt 0.5214745 0.2318292 0
vt 0.4981966 0.6121701 0
vt 0.4677841 0.6947056 0
vt 0.5204535 0.5799671 0
vt 0.0902473 0.7358933 0
vt 0.5313454 0.2958676 0
vt 0.5349873 0.3669107 0
vt 0.5344623 0.4405983 0
vt 0.53012 0.513122 0
vt 0.4294897 0.7085619 0
vt 0.5018086 0.6345748 0
vt 0.00390625 0.1814103 0
vt 0.0803588 0.08081211 0
vt 0.2023309 0.789679 0
vt 0.3192185 0.779842 0
vt 0.2997714 0.00390625 0
vt 0.1828836 0.01374281 0
vt 0.4217432 0.7127721 0
vt 0.3990885 0.7432932 0
vt 0.3823093 0.7923601 0
vt 0.3823093 0.8465236 0
vt 0.3990885 0.8955944 0
vt 0.4294897 0.9303218 0
vt 0.4677841 0.944182 0
vt 0.4775767 0.8938104 0
vt 0.4739227 0.7690703 0
vt 0.5158741 0.6581904 0
vt 0.5462724 0.6929216 0
vt 0.4775768 0.644334 0
vt 0.498194 0.1590052 0
vt 0.5630545 0.7419886 0
vt 0.5630545 0.796152 0
vt 0.5462753 0.8452228 0
vt 0.515874 0.8799502 0
vt 0.03221814 0.5131226 0
vt 0.007560316 0.6757119 0
vt 0.02357536 0.2318309 0
vt 0.03344709 0.2958661 0
vt 0.0370881 0.3669144 0
vt 0.03656326 0.4406024 0
vt 0.0225546 0.579969 0
vt 0.00390625 0.6345775 0
#end 132 textures vertices 

#begin 86 normals 
vn 0 1 0
vn -0 0.8885 -0.4589
vn -0.1991 0.8885 -0.4135
vn -0.3588 0.8885 -0.2861
vn -0.4474 0.8885 -0.1021
vn -0.4474 0.8885 0.1021
vn -0.3588 0.8885 0.2861
vn -0.1991 0.8885 0.4135
vn 0 0.8885 0.4589
vn 0.1991 0.8885 0.4135
vn 0.3588 0.8885 0.2861
vn 0.4474 0.8885 0.1021
vn 0.4474 0.8885 -0.1021
vn 0.3588 0.8885 -0.2861
vn 0.1991 0.8885 -0.4135
vn -0 0.6085 -0.7935
vn -0.3443 0.6085 -0.715
vn -0.6204 0.6085 -0.4948
vn -0.7737 0.6085 -0.1766
vn -0.7737 0.6085 0.1766
vn -0.6204 0.6085 0.4948
vn -0.3443 0.6085 0.715
vn 0 0.6085 0.7935
vn 0.3443 0.6085 0.715
vn 0.6204 0.6085 0.4948
vn 0.7737 0.6085 0.1766
vn 0.7737 0.6085 -0.1766
vn 0.6204 0.6085 -0.4948
vn 0.3443 0.6085 -0.715
vn -0 0.216 -0.9764
vn -0.4237 0.216 -0.8797
vn -0.7634 0.216 -0.6088
vn -0.9519 0.216 -0.2173
vn -0.9519 0.216 0.2173
vn -0.7634 0.216 0.6088
vn -0.4236 0.216 0.8797
vn 0 0.216 0.9764
vn 0.4236 0.216 0.8797
vn 0.7634 0.216 0.6088
vn 0.9519 0.216 0.2173
vn 0.9519 0.216 -0.2173
vn 0.7634 0.216 -0.6088
vn 0.4237 0.216 -0.8797
vn -0 -0.216 -0.9764
vn -0.4237 -0.216 -0.8797
vn -0.7634 -0.216 -0.6088
vn -0.9519 -0.216 -0.2173
vn -0.9519 -0.216 0.2173
vn -0.7634 -0.216 0.6088
vn -0.4236 -0.216 0.8797
vn 0 -0.216 0.9764
vn 0.4236 -0.216 0.8797
vn 0.7634 -0.216 0.6088
vn 0.9519 -0.216 0.2173
vn 0.9519 -0.216 -0.2173
vn 0.7634 -0.216 -0.6088
vn 0.4237 -0.216 -0.8797
vn -0 -0.6085 -0.7935
vn -0.3443 -0.6085 -0.715
vn -0.6204 -0.6085 -0.4948
vn -0.7737 -0.6085 -0.1766
vn -0.7737 -0.6085 0.1766
vn -0.6204 -0.6085 0.4948
vn -0.3443 -0.6085 0.715
vn 0 -0.6085 0.7935
vn 0.3443 -0.6085 0.715
vn 0.6204 -0.6085 0.4948
vn 0.7737 -0.6085 0.1766
vn 0.7737 -0.6085 -0.1766
vn 0.6204 -0.6085 -0.4948
vn 0.3443 -0.6085 -0.715
vn -0 -0.8885 -0.4589
vn -0.1991 -0.8885 -0.4135
vn -0.3588 -0.8885 -0.2861
vn -0.4474 -0.8885 -0.1021
vn -0.4474 -0.8885 0.1021
vn -0.3588 -0.8885 0.2861
vn -0.1991 -0.8885 0.4135
vn 0 -0.8885 0.4589
vn 0.1991 -0.8885 0.4135
vn 0.3588 -0.8885 0.2861
vn 0.4474 -0.8885 0.1021
vn 0.4474 -0.8885 -0.1021
vn 0.3588 -0.8885 -0.2861
vn 0.1991 -0.8885 -0.4135
vn 0 -1 0
#end 86 normals 

#begin 98 faces
o Sphere001
usemtl wire_057008136
g Sphere001
s 1
f 1/1/1 2/2/2 3/3/3 
f 1/1/1 3/3/3 4/4/4 
f 1/1/1 4/4/4 5/5/5 
f 1/1/1 5/5/5 6/6/6 
f 1/1/1 6/6/6 7/7/7 
f 1/1/1 7/7/7 8/8/8 
f 1/1/1 8/8/8 9/9/9 
f 1/88/1 9/126/9 10/10/10 
f 1/88/1 10/10/10 11/11/11 
f 1/88/1 11/11/11 12/12/12 
f 1/88/1 12/12/12 13/13/13 
f 1/88/1 13/13/13 14/14/14 
f 1/88/1 14/14/14 15/15/15 
f 1/88/1 15/15/15 2/89/2 
f 2/90/2 16/16/16 17/17/17 3/91/3 
f 3/91/3 17/17/17 18/18/18 4/96/4 
f 4/96/4 18/18/18 19/19/19 5/97/5 
f 5/97/5 19/19/19 20/20/20 6/98/6 
f 6/98/6 20/20/20 21/21/21 7/99/7 
f 7/99/7 21/21/21 22/22/22 8/94/8 
f 8/94/8 22/22/22 23/23/23 9/101/9 
f 9/102/9 23/103/23 24/24/24 10/127/10 
f 10/127/10 24/24/24 25/25/25 11/128/11 
f 11/128/11 25/25/25 26/26/26 12/129/12 
f 12/129/12 26/26/26 27/27/27 13/130/13 
f 13/130/13 27/27/27 28/28/28 14/125/14 
f 14/125/14 28/28/28 29/29/29 15/131/15 
f 15/131/15 29/29/29 16/95/16 2/132/2 
f 16/16/16 30/30/30 31/31/31 17/17/17 
f 17/17/17 31/31/31 32/32/32 18/18/18 
f 18/18/18 32/32/32 33/33/33 19/19/19 
f 19/19/19 33/33/33 34/34/34 20/20/20 
f 20/20/20 34/34/34 35/35/35 21/21/21 
f 21/21/21 35/35/35 36/36/36 22/22/22 
f 22/22/22 36/36/36 37/37/37 23/23/23 
f 23/103/23 37/107/37 38/38/38 24/24/24 
f 24/24/24 38/38/38 39/39/39 25/25/25 
f 25/25/25 39/39/39 40/40/40 26/26/26 
f 26/26/26 40/40/40 41/41/41 27/27/27 
f 27/27/27 41/41/41 42/42/42 28/28/28 
f 28/28/28 42/42/42 43/43/43 29/29/29 
f 29/29/29 43/43/43 30/104/30 16/95/16 
f 30/30/30 44/44/44 45/45/45 31/31/31 
f 31/31/31 45/45/45 46/46/46 32/32/32 
f 32/32/32 46/46/46 47/47/47 33/33/33 
f 33/33/33 47/47/47 48/48/48 34/34/34 
f 34/34/34 48/48/48 49/49/49 35/35/35 
f 35/35/35 49/49/49 50/50/50 36/36/36 
f 36/36/36 50/50/50 51/51/51 37/37/37 
f 37/107/37 51/106/51 52/52/52 38/38/38 
f 38/38/38 52/52/52 53/53/53 39/39/39 
f 39/39/39 53/53/53 54/54/54 40/40/40 
f 40/40/40 54/54/54 55/55/55 41/41/41 
f 41/41/41 55/55/55 56/56/56 42/42/42 
f 42/42/42 56/56/56 57/57/57 43/43/43 
f 43/43/43 57/57/57 44/105/44 30/104/30 
f 44/44/44 58/58/58 59/59/59 45/45/45 
f 45/45/45 59/59/59 60/60/60 46/46/46 
f 46/46/46 60/60/60 61/61/61 47/47/47 
f 47/47/47 61/61/61 62/62/62 48/48/48 
f 48/48/48 62/62/62 63/63/63 49/49/49 
f 49/49/49 63/63/63 64/64/64 50/50/50 
f 50/50/50 64/64/64 65/65/65 51/51/51 
f 51/106/51 65/87/65 66/66/66 52/52/52 
f 52/52/52 66/66/66 67/67/67 53/53/53 
f 53/53/53 67/67/67 68/68/68 54/54/54 
f 54/54/54 68/68/68 69/69/69 55/55/55 
f 55/55/55 69/69/69 70/70/70 56/56/56 
f 56/56/56 70/70/70 71/71/71 57/57/57 
f 57/57/57 71/71/71 58/108/58 44/105/44 
f 58/58/58 72/72/72 73/73/73 59/59/59 
f 59/59/59 73/73/73 74/74/74 60/60/60 
f 60/60/60 74/74/74 75/75/75 61/61/61 
f 61/61/61 75/75/75 76/76/76 62/62/62 
f 62/62/62 76/76/76 77/77/77 63/63/63 
f 63/63/63 77/77/77 78/78/78 64/64/64 
f 64/64/64 78/78/78 79/79/79 65/65/65 
f 65/87/65 79/120/79 80/80/80 66/66/66 
f 66/66/66 80/80/80 81/81/81 67/67/67 
f 67/67/67 81/81/81 82/82/82 68/68/68 
f 68/68/68 82/82/82 83/83/83 69/69/69 
f 69/69/69 83/83/83 84/84/84 70/70/70 
f 70/70/70 84/84/84 85/85/85 71/71/71 
f 71/71/71 85/85/85 72/92/72 58/108/58 
f 86/86/86 73/100/73 72/93/72 
f 86/86/86 74/109/74 73/100/73 
f 86/86/86 75/110/75 74/109/74 
f 86/86/86 76/111/76 75/110/75 
f 86/86/86 77/112/77 76/111/76 
f 86/86/86 78/113/78 77/112/77 
f 86/86/86 79/114/79 78/113/78 
f 86/116/86 80/124/80 79/115/79 
f 86/116/86 81/123/81 80/124/80 
f 86/116/86 82/122/82 81/123/81 
f 86/116/86 83/121/83 82/122/82 
f 86/116/86 84/118/84 83/121/83 
f 86/116/86 85/117/85 84/118/84 
f 86/116/86 72/119/72 85/117/85 
#end 98 faces

#ZOMPROPERTIES_03 {
#ZOMPROPERTIES_03 table {Mesh table {SymPlane table {Point vector3d 0 0 0 Normal vector3d 1 0 0 Threshold double 0.01 
#ZOMPROPERTIES_03 Enabled bool false EdgeID int -1 SymEdgeID int -1 UPos double 0.5 LocalMode bool false } RootGroup C
#ZOMPROPERTIES_03 SubMeshGroup {Children table {Tile_0_0 CSubMeshGroup {Children table {} BBoxUV box3d 0 0 0 0 0 0 BBo
#ZOMPROPERTIES_03 x3D box3d 0 0 0 0 0 0 AreaUV double 0 VisibleAreaUV double 0.693208 Area3D double 0 IsRoot bool fals
#ZOMPROPERTIES_03 e TopoStable table {Selected bool false Box box3d 0 1 0 1 0 1 U int 0 V int 0 NU int 0 NV int 0 Tili
#ZOMPROPERTIES_03 ng vector3d 1 1 1 TileRatioMode string "1:1" } IsTile bool true PolyIDs ints { 0 1 2 3 4 5 6 7 8 9 1
#ZOMPROPERTIES_03 0 11 12 13 14 15 16 17 18 19 20 34 48 62 76 75 74 73 72 71 70 56 42 28 43 44 45 46 47 60 32 59 31 58
#ZOMPROPERTIES_03  30 29 57 61 33 21 22 23 24 25 26 27 41 55 69 83 82 81 80 79 78 77 63 49 35 50 51 52 53 54 67 39 66 
#ZOMPROPERTIES_03 38 65 37 36 64 68 40 84 85 86 87 88 89 90 91 92 93 94 95 96 97 } } } BBoxUV box3d 0 0 0 0 0 0 BBox3D
#ZOMPROPERTIES_03  box3d 0 0 0 0 0 0 AreaUV double 0 VisibleAreaUV double 0 Area3D double 0 IsRoot bool true TopoStabl
#ZOMPROPERTIES_03 e table {Selected bool false Box box3d 0 1 0 1 0 1 U int 0 V int 0 NU int 1 NV int 1 Tiling vector3d
#ZOMPROPERTIES_03  1 1 1 TileRatioMode string "1:1" Pack table {Rotate table {Mode int 2 Min double 0 Max double 180 S
#ZOMPROPERTIES_03 tep double 0 } SpacingSize double 0.0078125 MarginSize double 0.00390625 Resolution int 200 Scaling 
#ZOMPROPERTIES_03 table {Mode int 0 } LayoutScalingMode int 2 MaxMutations int 1 } } IsTile bool false PolyIDs ints { 
#ZOMPROPERTIES_03 } } Maps table {Density table {PrimType string "Polygon" Size int 1 DefaultValue double 1 ScaleType 
#ZOMPROPERTIES_03 string "Log" MergeMode string "Average" MinValue double 0.1 MaxValue double 4 Data doubles { r 98 1 
#ZOMPROPERTIES_03 } } Pin table {PrimType string "Vertex" Size int 1 DefaultValue double 0 ScaleType string "Normalize
#ZOMPROPERTIES_03 d" MergeMode string "Max" MinValue double 0 MaxValue double 1 Data doubles { r 132 0 } } Protect tab
#ZOMPROPERTIES_03 le {PrimType string "Vertex" Size int 1 DefaultValue double 0 ScaleType string "Normalized" MergeMod
#ZOMPROPERTIES_03 e string "Average" MinValue double -1 MaxValue double 1 Data doubles { r 132 0 } } } } }
#ZOMPROPERTIES_03 }

#begin 0 fatal error vertex (that RizomUV cannot handle)
#end 0 fatal error vertex (that RizomUV cannot handle)

#begin 0 error vertex
#end 0 error vertex
