# 3ds Max Wavefront OBJ Exporter v0.97b - (c)2007 guruware
# File Created: 13.05.2022 13:51:30

mtllib Affiche 1.mtl

#
# object Affiche_1
#

v  -20.0000 0.2500 -30.0000
v  -20.0000 0.2500 30.0000
v  20.0000 0.2500 30.0000
v  20.0000 0.2500 -30.0000
v  20.0000 -0.2500 -30.0000
v  20.0000 -0.2500 30.0000
v  -20.0000 -0.2500 30.0000
v  -20.0000 -0.2500 -30.0000
# 8 vertices

vn -0.5774 0.5774 -0.5774
vn -0.5774 0.5774 0.5774
vn 0.5774 0.5774 0.5774
vn 0.5774 0.5774 -0.5774
vn 0.5774 -0.5774 -0.5774
vn 0.5774 -0.5774 0.5774
vn -0.5774 -0.5774 0.5774
vn -0.5774 -0.5774 -0.5774
# 8 vertex normals

vt 0.0089 0.7412 0.0000
vt 0.0089 0.0134 0.0000
vt 0.4941 0.0134 0.0000
vt 0.4941 0.7412 0.0000
vt 0.4979 0.7412 0.0000
vt 0.4979 0.0134 0.0000
vt 0.9832 0.0134 0.0000
vt 0.9832 0.7412 0.0000
vt 0.4009 0.9603 0.0000
vt 0.9962 0.9561 0.0000
vt 0.9963 0.9610 0.0000
vt 0.4010 0.9652 0.0000
vt 0.9963 0.9688 0.0000
vt 0.5995 0.9716 0.0000
vt 0.5994 0.9666 0.0000
vt 0.9963 0.9638 0.0000
vt 0.0042 0.9758 0.0000
vt 0.0041 0.9708 0.0000
vt 0.0041 0.9631 0.0000
vt 0.0041 0.9680 0.0000
# 20 texture coords

o Affiche_1
g Affiche_1
usemtl Affiche_1_wire_228214153
s 1
f 1/1/1 2/2/2 3/3/3 4/4/4 
f 5/5/5 6/6/6 7/7/7 8/8/8 
s 2
f 2/9/2 1/10/1 8/11/8 7/12/7 
s 4
f 1/13/1 4/14/4 5/15/5 8/16/8 
s 2
f 4/14/4 3/17/3 6/18/6 5/15/5 
s 4
f 3/19/3 2/9/2 7/12/7 6/20/6 
# 6 polygons

