#File written by RizomUV 2020.1.111.g89b05bd. Compilation :Jan  6 2021,08:31:11
mtllib Aff tableau:mtl
#begin vertices
v -50 0 11.25
v -50 0 22.5
v -25 0 22.5
v -25 0 11.25
v 0 0 22.5
v 0 0 11.25
v 25 0 22.5
v 25 0 11.25
v 50 0 22.5
v 50 0 11.25
v -50 0 -0
v -25 0 -0
v 0 0 -0
v 25 0 -0
v 50 0 -0
v -50 0 -11.25
v -25 0 -11.25
v 0 0 -11.25
v 25 0 -11.25
v 50 0 -11.25
v -50 0 -22.5
v -25 0 -22.5
v 0 0 -22.5
v 25 0 -22.5
v 50 0 -22.5
#end vertices

#begin 25 textures vertices 
vt 0.005156916 0.4119421 0
vt 0.005944246 0.3003238 0
vt 0.253985 0.3020734 0
vt 0.2531976 0.4136917 0
vt 0.5020257 0.303823 0
vt 0.5012383 0.4154413 0
vt 0.7500664 0.3055726 0
vt 0.749279 0.417191 0
vt 0.9981071 0.3073223 0
vt 0.9973197 0.4189406 0
vt 0.004369586 0.5235604 0
vt 0.2524103 0.52531 0
vt 0.500451 0.5270597 0
vt 0.7484917 0.5288093 0
vt 0.9965324 0.5305589 0
vt 0.003582255 0.6351787 0
vt 0.251623 0.6369284 0
vt 0.4996637 0.638678 0
vt 0.7477044 0.6404276 0
vt 0.9957451 0.6421772 0
vt 0.002794925 0.746797 0
vt 0.2508356 0.7485467 0
vt 0.4988763 0.7502963 0
vt 0.746917 0.7520459 0
vt 0.9949577 0.7537955 0
#end 25 textures vertices 

#begin 1 normals 
vn 0 1 -0
#end 1 normals 

#begin 16 faces
o Plane002
usemtl wire_088199225
g Plane002
s 1
f 1/1/1 2/2/1 3/3/1 4/4/1 
f 4/4/1 3/3/1 5/5/1 6/6/1 
f 6/6/1 5/5/1 7/7/1 8/8/1 
f 8/8/1 7/7/1 9/9/1 10/10/1 
f 11/11/1 1/1/1 4/4/1 12/12/1 
f 12/12/1 4/4/1 6/6/1 13/13/1 
f 13/13/1 6/6/1 8/8/1 14/14/1 
f 14/14/1 8/8/1 10/10/1 15/15/1 
f 16/16/1 11/11/1 12/12/1 17/17/1 
f 17/17/1 12/12/1 13/13/1 18/18/1 
f 18/18/1 13/13/1 14/14/1 19/19/1 
f 19/19/1 14/14/1 15/15/1 20/20/1 
f 21/21/1 16/16/1 17/17/1 22/22/1 
f 22/22/1 17/17/1 18/18/1 23/23/1 
f 23/23/1 18/18/1 19/19/1 24/24/1 
f 24/24/1 19/19/1 20/20/1 25/25/1 
#end 16 faces

#ZOMPROPERTIES_03 {
#ZOMPROPERTIES_03 table {Mesh table {SymPlane table {Point vector3d 0 0 0 Normal vector3d 1 0 0 Threshold double 0.01 
#ZOMPROPERTIES_03 Enabled bool false EdgeID int -1 SymEdgeID int -1 UPos double 0.5 LocalMode bool false } RootGroup C
#ZOMPROPERTIES_03 SubMeshGroup {Children table {Tile_0_0 CSubMeshGroup {Children table {} BBoxUV box3d 0 0 0 0 0 0 BBo
#ZOMPROPERTIES_03 x3D box3d 0 0 0 0 0 0 AreaUV double 0 VisibleAreaUV double 0.442996 Area3D double 0 IsRoot bool fals
#ZOMPROPERTIES_03 e TopoStable table {Selected bool false Box box3d 0 1 0 1 0 1 U int 0 V int 0 NU int 0 NV int 0 Tili
#ZOMPROPERTIES_03 ng vector3d 1 1 1 TileRatioMode string "1:1" } IsTile bool true PolyIDs ints { 0 1 2 3 7 11 10 9 8 1
#ZOMPROPERTIES_03 2 13 4 14 5 15 6 } } } BBoxUV box3d 0 0 0 0 0 0 BBox3D box3d 0 0 0 0 0 0 AreaUV double 0 VisibleArea
#ZOMPROPERTIES_03 UV double 0 Area3D double 0 IsRoot bool true TopoStable table {Selected bool true Box box3d 0 1 0 1 
#ZOMPROPERTIES_03 0 1 U int 0 V int 0 NU int 1 NV int 1 Tiling vector3d 1 1 1 TileRatioMode string "1:1" Pack table {R
#ZOMPROPERTIES_03 otate table {Mode int 2 Min double 0 Max double 180 Step double 0 } SpacingSize double 0.0078125 Mar
#ZOMPROPERTIES_03 ginSize double 0.00390625 Resolution int 200 Scaling table {Mode int 0 } LayoutScalingMode int 2 Max
#ZOMPROPERTIES_03 Mutations int 1 } } IsTile bool false PolyIDs ints { } } Maps table {Density table {PrimType string 
#ZOMPROPERTIES_03 "Polygon" Size int 1 DefaultValue double 1 ScaleType string "Log" MergeMode string "Average" MinValu
#ZOMPROPERTIES_03 e double 0.1 MaxValue double 4 Data doubles { r 16 1 } } Pin table {PrimType string "Vertex" Size in
#ZOMPROPERTIES_03 t 1 DefaultValue double 0 ScaleType string "Normalized" MergeMode string "Max" MinValue double 0 Max
#ZOMPROPERTIES_03 Value double 1 Data doubles { r 25 0 } } Protect table {PrimType string "Vertex" Size int 1 DefaultV
#ZOMPROPERTIES_03 alue double 0 ScaleType string "Normalized" MergeMode string "Average" MinValue double -1 MaxValue d
#ZOMPROPERTIES_03 ouble 1 Data doubles { r 25 0 } } } } }
#ZOMPROPERTIES_03 }

#begin 0 fatal error vertex (that RizomUV cannot handle)
#end 0 fatal error vertex (that RizomUV cannot handle)

#begin 0 error vertex
#end 0 error vertex
